<?xml version="1.0" standalone="no"?>
<!DOCTYPE svg PUBLIC "-//W3C//DTD SVG 20010904//EN"
 "http://www.w3.org/TR/2001/REC-SVG-20010904/DTD/svg10.dtd">
<svg version="1.0" xmlns="http://www.w3.org/2000/svg"
 width="1536.000000pt" height="1536.000000pt" viewBox="0 0 1536.000000 1536.000000"
 preserveAspectRatio="xMidYMid meet">
<metadata>
Created by potrace 1.14, written by Peter Selinger 2001-2017
</metadata>
<g transform="translate(0.000000,1536.000000) scale(0.100000,-0.100000)"
fill="#000000" stroke="none">
<path d="M7348 15355 c-1 -2 -57 -6 -123 -10 -66 -3 -138 -8 -160 -10 -22 -2
-72 -6 -110 -9 -39 -4 -81 -8 -95 -10 -14 -3 -52 -7 -85 -10 -33 -3 -71 -8
-85 -10 -14 -3 -47 -7 -75 -11 -106 -14 -121 -16 -145 -20 -14 -3 -43 -8 -65
-11 -32 -5 -336 -64 -405 -79 -30 -7 -360 -91 -390 -99 -8 -3 -49 -14 -90 -26
-84 -23 -284 -87 -315 -100 -11 -5 -63 -23 -115 -41 -109 -37 -422 -161 -525
-209 -38 -18 -104 -48 -145 -67 -308 -142 -679 -350 -964 -540 -60 -40 -111
-73 -113 -73 -2 0 -9 -5 -16 -10 -7 -6 -76 -57 -154 -113 -136 -98 -389 -294
-422 -327 -9 -9 -45 -40 -81 -70 -36 -30 -70 -59 -76 -65 -150 -137 -231 -213
-338 -321 -156 -155 -305 -315 -391 -419 -22 -26 -47 -55 -56 -64 -12 -12
-124 -150 -192 -236 -170 -216 -394 -546 -549 -810 -61 -104 -80 -136 -159
-280 -99 -182 -257 -521 -367 -790 -28 -67 -123 -326 -127 -345 -2 -8 -13 -42
-25 -75 -26 -75 -119 -384 -136 -454 -2 -9 -17 -70 -33 -136 -16 -66 -32 -131
-35 -145 -3 -14 -12 -56 -20 -95 -8 -38 -18 -86 -21 -105 -3 -19 -8 -42 -10
-50 -2 -8 -7 -28 -10 -45 -3 -16 -7 -41 -10 -55 -13 -71 -55 -365 -61 -430 -3
-41 -8 -77 -9 -80 -2 -3 -6 -44 -10 -90 -4 -47 -8 -95 -10 -108 -26 -166 -26
-1021 0 -1247 3 -22 7 -71 10 -109 3 -38 7 -79 10 -90 2 -12 7 -48 10 -81 3
-33 8 -76 10 -95 3 -19 8 -53 10 -75 3 -22 8 -53 11 -70 3 -16 7 -41 9 -55 10
-66 18 -117 21 -135 2 -11 6 -32 9 -47 16 -86 47 -238 55 -268 5 -19 11 -47
14 -63 3 -15 7 -35 10 -45 3 -9 7 -28 10 -42 32 -173 197 -699 314 -1000 5
-14 10 -28 11 -32 2 -7 18 -45 60 -143 5 -11 19 -42 31 -70 13 -27 40 -90 62
-140 86 -195 235 -481 373 -715 37 -63 79 -134 92 -157 13 -22 30 -47 38 -53
8 -7 15 -17 15 -22 0 -37 495 -713 599 -819 9 -9 34 -38 56 -64 22 -27 49 -59
60 -71 146 -160 199 -217 311 -328 202 -202 390 -376 517 -476 11 -8 24 -20
31 -25 61 -57 404 -319 471 -361 17 -10 32 -21 35 -25 16 -20 370 -246 514
-329 17 -10 60 -34 96 -55 277 -158 628 -326 940 -449 80 -32 154 -62 165 -67
36 -16 438 -147 545 -178 203 -58 533 -138 650 -157 14 -3 50 -9 80 -15 175
-32 257 -45 370 -59 47 -6 99 -13 115 -15 93 -12 118 -14 280 -29 300 -28 962
-29 1250 -1 22 2 72 6 110 9 39 4 81 8 95 10 14 3 52 7 85 10 33 3 71 8 85 10
14 3 48 7 75 11 106 14 121 16 145 20 14 3 43 8 65 11 32 5 336 64 405 79 30
7 360 91 390 99 8 3 49 14 90 26 106 29 292 89 312 101 10 5 22 9 28 9 14 0
351 126 418 156 29 13 54 24 56 24 11 0 317 140 435 199 136 68 290 148 346
181 106 61 332 195 340 202 6 4 84 57 175 117 162 108 269 183 321 225 15 11
39 30 55 41 35 25 287 227 335 269 200 174 279 248 448 417 426 426 740 820
1087 1364 161 252 354 616 509 960 162 359 375 988 441 1302 2 12 15 69 29
125 13 57 27 119 30 138 3 19 19 107 35 195 16 88 31 178 34 200 4 22 8 51 11
65 2 14 7 50 10 80 3 30 7 66 10 80 4 28 12 106 21 203 3 34 7 82 10 107 29
295 26 938 -6 1290 -15 169 -19 204 -35 313 -2 17 -9 68 -15 112 -16 117 -29
193 -45 275 -3 14 -10 52 -16 85 -6 33 -19 96 -29 140 -22 95 -27 115 -39 175
-5 25 -19 81 -31 125 -12 44 -28 105 -36 135 -32 119 -58 203 -124 400 -60
179 -87 254 -128 360 -5 14 -11 30 -12 35 -3 9 -20 49 -59 140 -5 11 -19 43
-31 70 -13 28 -40 91 -62 140 -80 182 -232 475 -355 685 -113 192 -127 216
-145 236 -10 11 -18 24 -18 28 0 35 -499 715 -599 817 -9 9 -34 38 -56 64 -22
27 -49 59 -60 71 -146 160 -199 217 -311 328 -202 202 -390 376 -517 476 -11
8 -24 20 -31 25 -61 57 -404 319 -471 361 -16 10 -32 21 -35 25 -16 20 -370
246 -514 329 -17 10 -60 34 -96 55 -277 158 -628 326 -940 449 -80 32 -154 62
-165 67 -36 16 -438 147 -545 178 -203 58 -533 138 -650 157 -14 3 -50 9 -80
15 -176 32 -258 45 -370 59 -47 6 -96 13 -110 15 -14 2 -56 7 -95 11 -38 3
-77 8 -86 9 -9 2 -65 6 -125 10 -60 4 -120 9 -134 12 -30 5 -807 13 -812 8z"/>
</g>
</svg>
