<?xml version="1.0" encoding="UTF-8" standalone="no"?>
<svg
   width="187"
   height="60"
   viewBox="0 0 187 60"
   fill="none"
   version="1.1"
   id="svg976"
   sodipodi:docname="logo-2.svg"
   xml:space="preserve"
   inkscape:version="1.2.1 (9c6d41e410, 2022-07-14)"
   xmlns:inkscape="http://www.inkscape.org/namespaces/inkscape"
   xmlns:sodipodi="http://sodipodi.sourceforge.net/DTD/sodipodi-0.dtd"
   xmlns="http://www.w3.org/2000/svg"
   xmlns:svg="http://www.w3.org/2000/svg"><sodipodi:namedview
     id="namedview978"
     pagecolor="#505050"
     bordercolor="#eeeeee"
     borderopacity="1"
     inkscape:showpageshadow="0"
     inkscape:pageopacity="0"
     inkscape:pagecheckerboard="0"
     inkscape:deskcolor="#505050"
     showgrid="false"
     inkscape:zoom="4.5753968"
     inkscape:cx="112.55854"
     inkscape:cy="35.406765"
     inkscape:window-width="1366"
     inkscape:window-height="705"
     inkscape:window-x="-8"
     inkscape:window-y="-8"
     inkscape:window-maximized="1"
     inkscape:current-layer="g1076" /><path
     d="M0 30C0 20.6812 0 16.0218 1.52241 12.3463C3.55229 7.44577 7.44577 3.55229 12.3463 1.52241C16.0218 0 20.6812 0 30 0V0C39.3188 0 43.9782 0 47.6537 1.52241C52.5542 3.55229 56.4477 7.44577 58.4776 12.3463C60 16.0218 60 20.6812 60 30V30C60 39.3188 60 43.9782 58.4776 47.6537C56.4477 52.5542 52.5542 56.4477 47.6537 58.4776C43.9782 60 39.3188 60 30 60V60C20.6812 60 16.0218 60 12.3463 58.4776C7.44577 56.4477 3.55229 52.5542 1.52241 47.6537C0 43.9782 0 39.3188 0 30V30Z"
     fill="url(#paint0_linear)"
     id="path958" /><g
     clip-path="url(#clip0)"
     id="g962"
     transform="matrix(1,0,0,-1,0,58.9995)"><path
       d="m 44.5313,31.7861 -8.8582,-15.4942 0.0288,-0.0465 c -1.7105,-2.9965 -5.9899,-2.9965 -7.7005,0 L 14.4492,39.9434 C 14.144,40.4845 14,41.0605 14,41.6249 c 0,1.7629 1.3938,3.3746 3.3405,3.3746 1.1923,0 2.2923,-0.6458 2.8913,-1.6815 l 10.707,-18.7408 c 0.3917,-0.6866 1.3708,-0.6866 1.7624,0 l 3.3578,5.8707 c 0.3398,0.5935 -0.0864,1.3382 -0.766,1.3382 h -3.7725 c -1.843,0 -3.3348,1.5069 -3.3348,3.3688 v 0.0058 c 0,1.8619 1.4918,3.3688 3.3348,3.3688 h 9.1519 2.0677 c 2.5054,0 4.072,-2.7404 2.8222,-4.9339 z"
       fill="#ffffff"
       id="path960" /></g><defs
     id="defs974"><linearGradient
       id="paint0_linear"
       x1="8.5"
       y1="4"
       x2="51.5"
       y2="55"
       gradientUnits="userSpaceOnUse"><stop
         stop-color="#6964EE"
         id="stop966" /><stop
         offset="0.673777"
         stop-color="#9B92FF"
         id="stop968" /></linearGradient><clipPath
       id="clip0"><rect
         width="32"
         height="31"
         fill="white"
         transform="translate(14 14)"
         id="rect971" /></clipPath><linearGradient
       id="paint0_linear-9"
       x1="22.7306"
       y1="17.2023"
       x2="42.6758"
       y2="32.9132"
       gradientUnits="userSpaceOnUse"><stop
         stop-color="#5D59EA"
         id="stop32" /><stop
         offset="1"
         stop-color="#9A91FF"
         id="stop34" /></linearGradient><clipPath
       id="clip0-4"><rect
         width="32"
         height="31"
         fill="white"
         transform="translate(14 14)"
         id="rect37" /></clipPath></defs><g
     style="fill:none"
     id="g1076"><text
       xml:space="preserve"
       style="font-style:normal;font-variant:normal;font-weight:bold;font-stretch:normal;font-size:17.3333px;font-family:sans-serif;-inkscape-font-specification:'sans-serif Bold';fill:#292930;fill-opacity:1"
       x="77.581818"
       y="26.136364"
       id="text767-9"><tspan
         sodipodi:role="line"
         id="tspan765-2"
         x="77.581818"
         y="26.136364">Shadow</tspan></text><text
       xml:space="preserve"
       style="font-style:normal;font-variant:normal;font-weight:bold;font-stretch:normal;font-size:17.3333px;font-family:sans-serif;-inkscape-font-specification:'sans-serif Bold';fill:#292930;fill-opacity:1"
       x="100.60909"
       y="44.054546"
       id="text821-0"><tspan
         sodipodi:role="line"
         id="tspan819-3"
         x="100.60909"
         y="44.054546">Luminous</tspan></text></g></svg>
